# xmcd
#
# Track frame offsets:
#	150
#	17341
#	25475
#	46000
#	75996
#	102606
#	124214
#	174203
#
# Disc length: 2667 seconds
#
# Revision: 1
# Processed by: cddbd v1.5.1PL2 Copyright (c) Steve Scherf et al.
# Submitted via: audiograbber 1.82.02
#
DISCID=530a6908
DTITLE=Colossal Yes - Acapulco Roughs
DYEAR=2006
DGENRE=Rock
TTITLE0=Just Like a Mademoiselle
TTITLE1=A Titan's Buffet
TTITLE2=The Honeycreeper Smiles
TTITLE3=O'Crocus Shall Be Raised
TTITLE4=A Fig for Misfortune
TTITLE5=Between Ass and Ophir
TTITLE6=Poor Boy's Zodiac
TTITLE7=There's Red Dirt in Wine
EXTD=
EXTT0=
EXTT1=
EXTT2=
EXTT3=
EXTT4=
EXTT5=
EXTT6=
EXTT7=
PLAYORDER=
